<mxfile host="app.diagrams.net" modified="2024-01-20T05:05:43.129Z" agent="Mozilla/5.0 (Windows NT 10.0; Win64; x64) AppleWebKit/537.36 (KHTML, like Gecko) Chrome/120.0.0.0 Safari/537.36" etag="eMn9qWYxjLvJwUh-qGh0" version="22.1.21" type="device">
  <diagram name="Page-1" id="R_DPpYg1XT0gOXAV-Kl3">
    <mxGraphModel dx="880" dy="460" grid="1" gridSize="10" guides="1" tooltips="1" connect="1" arrows="1" fold="1" page="1" pageScale="1" pageWidth="850" pageHeight="1100" math="0" shadow="0">
      <root>
        <mxCell id="0" />
        <mxCell id="1" parent="0" />
        <mxCell id="xK8tKieOkboL1yIOGkCj-1" value="" style="whiteSpace=wrap;html=1;aspect=fixed;" vertex="1" parent="1">
          <mxGeometry x="550" y="140" width="140" height="140" as="geometry" />
        </mxCell>
        <mxCell id="xK8tKieOkboL1yIOGkCj-2" value="&lt;font style=&quot;font-size: 14px;&quot;&gt;Spring Boot&lt;/font&gt;" style="text;html=1;strokeColor=none;fillColor=none;align=center;verticalAlign=middle;whiteSpace=wrap;rounded=0;" vertex="1" parent="1">
          <mxGeometry x="390" y="90" width="130" height="30" as="geometry" />
        </mxCell>
        <mxCell id="xK8tKieOkboL1yIOGkCj-3" value="" style="ellipse;whiteSpace=wrap;html=1;" vertex="1" parent="1">
          <mxGeometry x="60" y="150" width="120" height="80" as="geometry" />
        </mxCell>
        <mxCell id="xK8tKieOkboL1yIOGkCj-4" style="edgeStyle=orthogonalEdgeStyle;rounded=0;orthogonalLoop=1;jettySize=auto;html=1;entryX=-0.043;entryY=0.479;entryDx=0;entryDy=0;entryPerimeter=0;" edge="1" parent="1" source="xK8tKieOkboL1yIOGkCj-3" target="xK8tKieOkboL1yIOGkCj-1">
          <mxGeometry relative="1" as="geometry" />
        </mxCell>
      </root>
    </mxGraphModel>
  </diagram>
</mxfile>
